<?xml version="1.0" encoding="UTF-8"?>
<!DOCTYPE svg PUBLIC "-//W3C//DTD SVG 1.1//EN" "http://www.w3.org/Graphics/SVG/1.1/DTD/svg11.dtd">
<!-- Creator: CorelDRAW 2019 (64-Bit) -->
<svg xmlns="http://www.w3.org/2000/svg" xml:space="preserve" width="91.4398mm" height="50.7998mm" version="1.1" style="shape-rendering:geometricPrecision; text-rendering:geometricPrecision; image-rendering:optimizeQuality; fill-rule:evenodd; clip-rule:evenodd"
viewBox="0 0 9143.98 5079.98"
 xmlns:xlink="http://www.w3.org/1999/xlink"
 xmlns:xodm="http://www.corel.com/coreldraw/odm/2003">
 <defs>
  <style type="text/css">
   <![CDATA[
    .str4 {stroke:#22A6D6;stroke-width:37.55;stroke-miterlimit:22.9256}
    .str3 {stroke:#22A6D6;stroke-width:37.55;stroke-miterlimit:22.9256}
    .str9 {stroke:#373435;stroke-width:37.55;stroke-miterlimit:22.9256}
    .str10 {stroke:#22A6D6;stroke-width:37.55;stroke-miterlimit:22.9256}
    .str12 {stroke:#373435;stroke-width:37.55;stroke-miterlimit:22.9256}
    .str5 {stroke:#373435;stroke-width:37.55;stroke-miterlimit:22.9256}
    .str7 {stroke:#373435;stroke-width:37.55;stroke-miterlimit:22.9256}
    .str2 {stroke:#373435;stroke-width:37.55;stroke-miterlimit:22.9256}
    .str11 {stroke:#373435;stroke-width:37.55;stroke-miterlimit:22.9256}
    .str6 {stroke:#373435;stroke-width:37.55;stroke-miterlimit:22.9256}
    .str8 {stroke:#373435;stroke-width:37.55;stroke-miterlimit:22.9256}
    .str1 {stroke:#373435;stroke-width:37.55;stroke-miterlimit:22.9256}
    .str0 {stroke:#373435;stroke-width:37.55;stroke-miterlimit:22.9256}
    .fil0 {fill:none}
    .fil2 {fill:none;fill-rule:nonzero}
    .fil1 {fill:#FEFEFE}
   ]]>
  </style>
 </defs>
 <g id="Layer_x0020_1">
  <metadata id="CorelCorpID_0Corel-Layer"/>
  <polygon class="fil0 str0" points="2186.55,2357.41 2315.28,2706.03 1973.71,2705.26 1973.71,2832.95 2362.61,2832.95 2466.05,3110.79 2589.18,3110.79 2247.24,2193.2 "/>
  <polygon class="fil1 str1" points="2714.54,3110.79 2589.18,3110.79 2247.24,2193.2 1908.09,3110.79 1763.9,3110.79 2186.76,1972.53 2291.45,1972.53 "/>
  <polygon class="fil1 str2" points="1615.23,3110.02 1763.9,3110.79 1914.57,2705.22 2315.28,2706.03 2272.4,2589.87 1957.44,2589.87 2186.76,1972.53 2040.05,1972.53 "/>
  <path class="fil0 str3" d="M2825.67 3110.91l0 -1138.21 152.03 0 0 131.45 103.54 0 0 -131.45 136.56 0c88.49,0 156.04,5.31 202.68,16.16 65.17,15.12 120.82,42.4 166.91,81.6 60.14,50.88 104.92,115.53 134.59,194.48 29.94,78.95 44.78,169.3 44.78,270.78 0,86.37 -10.07,162.93 -30.19,229.7 -20.15,66.76 -46.12,122.13 -77.64,165.86 -31.79,43.71 -66.24,78.15 -103.87,103.06 -37.34,25.16 -82.65,44.24 -135.65,57.23 -53.25,12.97 -114.17,19.34 -183.06,19.34l-410.68 0zm151.03 -133.53l242.69 0c74.97,0 133.8,-6.89 176.46,-20.94 42.64,-14.04 76.56,-33.64 101.98,-59.09 35.51,-35.76 63.33,-83.98 83.2,-144.38 19.88,-60.42 29.95,-133.53 29.95,-219.63 0,-119.23 -19.61,-210.91 -58.56,-275.03 -38.95,-64.12 -86.37,-107.04 -142.27,-128.76 -40.27,-15.62 -105.2,-23.32 -194.74,-23.32l-238.71 0 0 871.15z"/>
  <path class="fil2 str4" d="M2977.7 2973.26l0 -868.83 263.87 0c59.55,0 105.01,4.03 136.4,12.33 43.86,11.53 81.32,32.35 112.34,62.3 40.46,38.83 70.61,88.17 90.57,148.44 20.15,60.27 30.13,129.23 30.13,206.7 0,65.92 -6.77,124.37 -20.31,175.34 -13.56,50.96 -31.04,93.22 -52.27,126.61 -21.39,33.36 -44.58,59.65 -69.88,78.67 -25.15,19.2 -55.64,33.77 -91.29,43.69 -35.84,9.89 -76.85,14.75 -123.21,14.75l-31.88 0 0 -122.64 20.47 0c51.99,0 108.92,-0.47 143.93,-40.36 23.94,-27.25 42.62,-64.14 55.99,-110.24 13.35,-46.09 20.15,-101.91 20.15,-167.64 0,-91.01 -13.2,-161 -39.41,-209.93 -42.12,-78.67 -95.42,-92.28 -183.33,-92.28l-121.34 0 0 614.35 0 6.1 0 122.64 -140.93 0z"/>
  <polygon class="fil1 str5" points="3903.33,3106.78 4047.71,3106.78 4047.71,2212.35 4643.14,3103.42 4800.4,3103.13 4058.9,1969.07 3905.04,1969.32 "/>
  <polygon class="fil1 str6" points="4212.64,1969.34 4656.64,2612.04 4657.32,1969.24 4800.44,1969.32 4800.4,3103.13 4643.14,3103.42 4482.31,2862.83 4643.27,2862.83 4058.9,1969.07 "/>
  <polygon class="fil0 str7" points="5468.51,2357.41 5597.24,2706.03 5255.67,2705.26 5255.67,2832.95 5644.57,2832.95 5748,3110.79 5871.13,3110.79 5529.19,2193.2 "/>
  <polygon class="fil1 str8" points="5996.5,3110.79 5871.13,3110.79 5529.19,2193.2 5190.05,3110.79 5045.86,3110.79 5468.72,1972.53 5573.41,1972.53 "/>
  <polygon class="fil1 str9" points="4897.19,3110.02 5045.86,3110.79 5196.53,2705.22 5597.24,2706.03 5554.35,2589.87 5239.39,2589.87 5468.72,1972.53 5322.01,1972.53 "/>
  <rect class="fil0 str10" x="7122.01" y="2975.09" width="406.73" height="127.92"/>
  <polygon class="fil1 str11" points="6092.81,3106.78 6237.19,3106.78 6237.19,2212.35 6832.62,3103.42 6989.88,3103.13 6248.38,1969.07 6094.52,1969.32 "/>
  <polygon class="fil1 str12" points="6402.12,1969.34 6846.12,2612.04 6846.8,1969.24 6989.92,1969.32 6989.88,3103.13 6832.62,3103.42 6671.79,2862.83 6832.75,2862.83 6248.38,1969.07 "/>
 </g>
</svg>
